Coordinates
version=1
nRows=13
nColumns=40
inDegrees=yes

Units are S.I. units (second, meters, Newtons, ...)
If the header above contains a line with 'inDegrees', this indicates whether rotational values are in degrees (yes) or radians (no).

endheader
time	pelvis_tilt	pelvis_list	pelvis_rotation	pelvis_tx	pelvis_ty	pelvis_tz	hip_flexion_r	hip_adduction_r	hip_rotation_r	knee_angle_r	knee_angle_r_beta	ankle_angle_r	subtalar_angle_r	mtp_angle_r	hip_flexion_l	hip_adduction_l	hip_rotation_l	knee_angle_l	knee_angle_l_beta	ankle_angle_l	subtalar_angle_l	mtp_angle_l	lumbar_extension	lumbar_bending	lumbar_rotation	arm_flex_r	arm_add_r	arm_rot_r	elbow_flex_r	pro_sup_r	wrist_flex_r	wrist_dev_r	arm_flex_l	arm_add_l	arm_rot_l	elbow_flex_l	pro_sup_l	wrist_flex_l	wrist_dev_l
      1.07600000	     18.98561463	      4.45164637	      5.57735752	      1.51920867	      0.96495447	     -0.32277870	      7.99112876	     -5.74209796	     -9.88896709	     20.66527475	      0.36067709	     -8.09053981	      0.00000000	      0.00000000	    -29.28588981	      5.66500931	      6.89139371	     10.27160508	      0.17927333	     -1.75792997	      0.00000000	      0.00000000	    -33.23166062	     -2.24638705	     -9.27985908	     -1.63060606	    -15.08464233	      6.83052788	     39.79784802	     75.45818847	      0.00000000	      0.00000000	     10.55263729	    -28.29847509	     26.92352382	     57.05838133	     77.10438567	      0.00000000	      0.00000000
      1.08000000	     18.74072756	      4.56283828	      5.49719314	      1.52416352	      0.96349043	     -0.32255602	      8.65908472	     -5.81564545	    -10.07254258	     20.02498943	      0.34950200	     -8.09000579	      0.00000000	      0.00000000	    -29.32306799	      5.78695589	      6.76366748	     10.40199212	      0.18154901	     -1.62431034	      0.00000000	      0.00000000	    -33.07223277	     -2.42002288	     -9.27231352	     -1.59424203	    -15.05225631	      6.84504310	     39.71404245	     75.42996392	      0.00000000	      0.00000000	     10.73484493	    -28.42388980	     27.01135831	     57.28849320	     77.11232845	      0.00000000	      0.00000000
      1.08400000	     18.52134932	      4.59501504	      5.45782512	      1.52878876	      0.96223336	     -0.32217641	      9.15123921	     -5.71421636	     -9.83023651	     18.94709350	      0.33068917	     -8.87922505	      0.00000000	      0.00000000	    -29.33374778	      5.80024183	      6.63110546	     10.59138613	      0.18485456	     -1.25786274	      0.00000000	      0.00000000	    -32.96535749	     -2.49497113	     -9.30577262	     -1.35181194	    -14.94898156	      6.82191801	     39.39719323	     75.32330508	      0.00000000	      0.00000000	     11.09888781	    -28.39508306	     27.03763010	     57.15859196	     77.08862306	      0.00000000	      0.00000000
      1.08800000	     18.32982207	      4.61373631	      5.41947467	      1.53375766	      0.96093970	     -0.32171450	      9.55682645	     -5.56699533	     -9.62182420	     17.91389213	      0.31265640	     -9.24209101	      0.00000000	      0.00000000	    -29.36014678	      5.79642175	      6.38073383	     10.83176010	      0.18904988	     -1.00609399	      0.00000000	      0.00000000	    -32.85470186	     -2.57150112	     -9.31230572	     -1.21046551	    -14.84946539	      6.81362613	     39.14459580	     75.28466073	      0.00000000	      0.00000000	     11.31963511	    -28.50782387	     27.11292319	     57.27289692	     77.06057998	      0.00000000	      0.00000000
      1.09200000	     18.14744209	      4.60523411	      5.32863732	      1.53874184	      0.95955966	     -0.32130526	      9.99981783	     -5.41511750	     -9.41733991	     16.96669683	      0.29612472	     -9.71148206	      0.00000000	      0.00000000	    -29.38533239	      5.79175714	      5.93371019	     11.08494599	      0.19346880	     -0.74126143	      0.00000000	      0.00000000	    -32.73651968	     -2.63631432	     -9.26023796	     -1.08263295	    -14.78477577	      6.94088868	     38.85439349	     75.47061497	      0.00000000	      0.00000000	     11.48674213	    -28.64415072	     27.24649236	     57.49562806	     76.91039622	      0.00000000	      0.00000000
      1.09600000	     17.96839882	      4.65953449	      5.30838692	      1.54349771	      0.95816718	     -0.32100440	     10.65230401	     -5.41873383	     -9.49939546	     16.60613348	      0.28983171	     -9.65260319	      0.00000000	      0.00000000	    -29.45256970	      5.81481313	      5.85470019	     11.21053160	      0.19566069	     -0.70376034	      0.00000000	      0.00000000	    -32.68829844	     -2.70318834	     -9.29847304	     -0.97589408	    -14.74980293	      6.94556503	     38.86019436	     75.47259654	      0.00000000	      0.00000000	     11.75066868	    -28.69940366	     27.18375095	     57.58308448	     76.90351047	      0.00000000	      0.00000000
      1.10000000	     17.76504068	      4.60482894	      5.17610816	      1.54871698	      0.95689689	     -0.32044429	     10.80384958	     -5.10692178	     -8.79185967	     15.03192211	      0.26235653	    -10.62365562	      0.00000000	      0.00000000	    -29.41680460	      5.77121583	      5.40401037	     11.57908598	      0.20209317	     -0.25423390	      0.00000000	      0.00000000	    -32.50095546	     -2.74923277	     -9.22362049	     -0.80263333	    -14.65840967	      6.98772433	     38.53088814	     75.46378955	      0.00000000	      0.00000000	     11.92725631	    -28.63370543	     27.07106858	     57.40634384	     76.96220675	      0.00000000	      0.00000000
      1.10400000	     17.54701811	      4.74399207	      5.12853898	      1.55385168	      0.95541265	     -0.32028027	     11.32945303	     -5.18356232	     -8.67471162	     14.45088004	      0.25221544	    -10.71909126	      0.00000000	      0.00000000	    -29.43057407	      5.89989161	      5.30691369	     11.83179684	      0.20650381	     -0.04388195	      0.00000000	      0.00000000	    -32.35079295	     -2.92166512	     -9.24448904	     -0.71419863	    -14.59160581	      6.95471624	     38.34880019	     75.43668818	      0.00000000	      0.00000000	     12.05414214	    -28.72133528	     27.14205192	     57.67127749	     76.97186622	      0.00000000	      0.00000000
      1.10800000	     17.39398390	      4.82263069	      5.06324230	      1.55878232	      0.95413497	     -0.31985465	     11.63095810	     -5.09554181	     -8.06238473	     13.50541182	      0.23571390	    -11.18676778	      0.00000000	      0.00000000	    -29.42360804	      5.96094688	      5.13254897	     12.23334270	      0.21351211	      0.31505777	      0.00000000	      0.00000000	    -32.28973160	     -3.05020123	     -9.27229964	     -0.45913580	    -14.46097674	      6.88931860	     37.94716692	     75.38584353	      0.00000000	      0.00000000	     12.28772241	    -28.78713688	     27.15294844	     57.67071677	     76.94256418	      0.00000000	      0.00000000
      1.11200000	     17.23876429	      4.73226871	      5.03105513	      1.56400060	      0.95280551	     -0.31959441	     11.91839565	     -4.87265071	     -7.73789587	     12.61286175	      0.22013597	    -11.64439237	      0.00000000	      0.00000000	    -29.44709831	      5.85251171	      4.85496045	     12.57154299	      0.21941482	      0.53094802	      0.00000000	      0.00000000	    -32.17851718	     -2.97172307	     -9.22354466	     -0.34953226	    -14.43504647	      6.89574477	     37.83369367	     75.30817106	      0.00000000	      0.00000000	     12.46944174	    -28.63421490	     26.89912093	     57.50292084	     76.93533120	      0.00000000	      0.00000000
      1.11600000	     17.08515891	      4.75909982	      5.00120619	      1.56910480	      0.95142592	     -0.31956349	     12.44313477	     -4.85241998	     -7.78769158	     12.35822729	      0.21569176	    -11.59188718	      0.00000000	      0.00000000	    -29.52385351	      5.87999681	      4.85562555	     12.75795691	      0.22266835	      0.49932536	      0.00000000	      0.00000000	    -32.09219140	     -2.99946723	     -9.22409823	     -0.25514323	    -14.46611391	      6.88673926	     37.83436161	     75.29931745	      0.00000000	      0.00000000	     12.60727833	    -28.67505439	     26.88578666	     57.62328721	     76.93324856	      0.00000000	      0.00000000
      1.12000000	     16.99209463	      4.79938600	      5.03893278	      1.57446062	      0.95021383	     -0.31907595	     12.45858173	     -4.71408007	     -7.28026799	     11.22968319	      0.19599495	    -12.17304078	      0.00000000	      0.00000000	    -29.48926552	      5.79843021	      4.63238245	     13.39616763	      0.23380723	      0.89136342	      0.00000000	      0.00000000	    -32.04863833	     -3.04535285	     -9.29527175	     -0.11481789	    -14.32682077	      6.86785797	     37.53978995	     75.12148822	      0.00000000	      0.00000000	     12.71423577	    -28.80513888	     27.00959964	     57.81933894	     76.80680606	      0.00000000	      0.00000000
      1.12400000	     16.79804622	      4.83724770	      4.99718893	      1.57994313	      0.94878362	     -0.31906535	     12.95372532	     -4.71536888	     -7.22533204	     10.96246721	      0.19133115	    -12.21658439	      0.00000000	      0.00000000	    -29.49617034	      5.83846615	      4.59310857	     13.72446015	      0.23953702	      1.01889151	      0.00000000	      0.00000000	    -31.88433389	     -3.09135656	     -9.30449605	     -0.03129111	    -14.31387551	      6.85177139	     37.41290029	     75.07073881	      0.00000000	      0.00000000	     12.83732472	    -28.62356963	     26.75754379	     57.64259964	     76.80263574	      0.00000000	      0.00000000
